<?xml version="1.0" encoding="UTF-8" standalone="no"?>
<svg
   viewBox="0 0 32 32"
   role="img"
   aria-label="qreview"
   version="1.1"
   id="svg21"
   sodipodi:docname="logo.svg"
   inkscape:version="1.2.2 (b0a8486541, 2022-12-01)"
   xmlns:inkscape="http://www.inkscape.org/namespaces/inkscape"
   xmlns:sodipodi="http://sodipodi.sourceforge.net/DTD/sodipodi-0.dtd"
   xmlns="http://www.w3.org/2000/svg"
   xmlns:svg="http://www.w3.org/2000/svg">
  <sodipodi:namedview
     id="namedview23"
     pagecolor="#ffffff"
     bordercolor="#000000"
     borderopacity="0.25"
     inkscape:showpageshadow="2"
     inkscape:pageopacity="0.0"
     inkscape:pagecheckerboard="0"
     inkscape:deskcolor="#d1d1d1"
     showgrid="false"
     inkscape:zoom="256"
     inkscape:cx="11.849609"
     inkscape:cy="13.375"
     inkscape:window-width="1920"
     inkscape:window-height="1128"
     inkscape:window-x="0"
     inkscape:window-y="0"
     inkscape:window-maximized="1"
     inkscape:current-layer="svg21" />
  <title
     id="title2">qreview</title>
  <defs
     id="defs9">
    <clipPath
       id="q">
      <path
         d="M5.5 11a5.5 5.5 0 0 1 5.5-5.5h4.5A5.5 5.5 0 0 1 21 11v5a5.5 5.5 0 0 1-5.5 5.5H11A5.5 5.5 0 0 1 5.5 16z"
         id="path4" />
      <rect
         x="16.6"
         y="5.5"
         width="4.6"
         height="21.5"
         rx="2.3"
         id="rect6" />
    </clipPath>
  </defs>
  <rect
     width="32"
     height="32"
     rx="7.5"
     fill="#23262b"
     id="rect11" />
  <g
     clip-path="url(#q)"
     id="g17"
     transform="matrix(1.18911,0,0,1.18911,0.12538191,-3.3230367)">
    <rect
       y="0"
       width="32"
       height="13.5"
       fill="#ff7b72"
       id="rect13"
       x="0" />
    <rect
       y="13.5"
       width="32"
       height="19"
       fill="#7ee787"
       id="rect15"
       x="0" />
  </g>
  <rect
     x="11.559626"
     y="7.7177677"
     width="8.8807487"
     height="10.019306"
     rx="3.3018169"
     fill="#23262b"
     id="rect19"
     style="stroke-width:1.13855" />
</svg>
